<mxfile host="app.diagrams.net" agent="Mozilla/5.0 (Windows NT 10.0; Win64; x64) AppleWebKit/537.36 (KHTML, like Gecko) Chrome/130.0.0.0 YaBrowser/24.12.0.0 Safari/537.36" version="25.0.3">
  <diagram name="Страница — 1" id="vbZ7HtzkorQJQs3ptD_V">
    <mxGraphModel dx="1414" dy="769" grid="1" gridSize="12" guides="1" tooltips="1" connect="1" arrows="1" fold="1" page="1" pageScale="1" pageWidth="827" pageHeight="1169" math="0" shadow="0">
      <root>
        <mxCell id="0" />
        <mxCell id="1" parent="0" />
        <mxCell id="6riitA2YKotpNlWL1ofX-9" value="" style="edgeStyle=orthogonalEdgeStyle;rounded=0;orthogonalLoop=1;jettySize=auto;html=1;" edge="1" parent="1" source="6riitA2YKotpNlWL1ofX-1" target="6riitA2YKotpNlWL1ofX-3">
          <mxGeometry relative="1" as="geometry" />
        </mxCell>
        <mxCell id="6riitA2YKotpNlWL1ofX-1" value="&lt;font style=&quot;font-size: 14px;&quot; face=&quot;Times New Roman&quot;&gt;Начало&lt;/font&gt;" style="ellipse;whiteSpace=wrap;html=1;" vertex="1" parent="1">
          <mxGeometry x="230" y="84" width="320" height="36" as="geometry" />
        </mxCell>
        <mxCell id="6riitA2YKotpNlWL1ofX-10" value="" style="edgeStyle=orthogonalEdgeStyle;rounded=0;orthogonalLoop=1;jettySize=auto;html=1;" edge="1" parent="1" source="6riitA2YKotpNlWL1ofX-3" target="6riitA2YKotpNlWL1ofX-6">
          <mxGeometry relative="1" as="geometry" />
        </mxCell>
        <mxCell id="6riitA2YKotpNlWL1ofX-3" value="&lt;font style=&quot;font-size: 14px;&quot; face=&quot;Times New Roman&quot;&gt;double a, a1, a2, b, c, c1, d, e, f, g, h, i, j, k, result1, result2, bracket1&lt;/font&gt;" style="shape=parallelogram;perimeter=parallelogramPerimeter;whiteSpace=wrap;html=1;fixedSize=1;" vertex="1" parent="1">
          <mxGeometry x="230" y="160" width="320" height="60" as="geometry" />
        </mxCell>
        <mxCell id="6riitA2YKotpNlWL1ofX-11" value="" style="edgeStyle=orthogonalEdgeStyle;rounded=0;orthogonalLoop=1;jettySize=auto;html=1;" edge="1" parent="1" source="6riitA2YKotpNlWL1ofX-6" target="6riitA2YKotpNlWL1ofX-7">
          <mxGeometry relative="1" as="geometry" />
        </mxCell>
        <mxCell id="6riitA2YKotpNlWL1ofX-6" value="&lt;p style=&quot;line-height: 70%;&quot; class=&quot;MsoNormal&quot;&gt;&lt;font style=&quot;font-size: 12px;&quot;&gt;&lt;span style=&quot;background: rgb(255, 255, 255);&quot;&gt;a = 2.7 - 0.8&lt;/span&gt;&lt;span style=&quot;background: rgb(255, 255, 255);&quot;&gt;&amp;nbsp; &amp;nbsp;&amp;nbsp;&lt;/span&gt;&lt;/font&gt;&lt;/p&gt;&lt;p style=&quot;line-height: 70%;&quot; class=&quot;MsoNormal&quot;&gt;&lt;font style=&quot;font-size: 12px;&quot;&gt;&lt;span style=&quot;background: rgb(255, 255, 255);&quot;&gt;a1 = &lt;/span&gt;&lt;span style=&quot;color: rgb(43, 145, 175); background: rgb(255, 255, 255);&quot;&gt;Math&lt;/span&gt;&lt;span style=&quot;background: rgb(255, 255, 255);&quot;&gt;.Pow(&lt;/span&gt;&lt;span style=&quot;color: rgb(43, 145, 175); background: rgb(255, 255, 255);&quot;&gt;Math&lt;/span&gt;&lt;span style=&quot;background: rgb(255, 255, 255);&quot;&gt;.Sqrt(2.33), 0.33)&lt;/span&gt;&lt;/font&gt;&lt;/p&gt;&lt;p style=&quot;line-height: 70%;&quot; class=&quot;MsoNormal&quot;&gt;&lt;font style=&quot;font-size: 12px;&quot;&gt;&lt;span style=&quot;background: rgb(255, 255, 255);&quot;&gt;b = &lt;/span&gt;&lt;span style=&quot;background: rgb(255, 255, 255);&quot;&gt;Math&lt;/span&gt;&lt;span style=&quot;background: rgb(255, 255, 255);&quot;&gt;.Sqrt(a * a1)&lt;/span&gt;&lt;/font&gt;&lt;/p&gt;&lt;p class=&quot;MsoNormal&quot;&gt;&lt;font style=&quot;font-size: 12px;&quot;&gt;&lt;span style=&quot;background: rgb(255, 255, 255);&quot;&gt;&lt;/span&gt;&lt;/font&gt;&lt;/p&gt;&lt;p style=&quot;line-height: 70%;&quot; class=&quot;MsoNormal&quot;&gt;&lt;span style=&quot;background: rgb(255, 255, 255);&quot;&gt;&lt;font style=&quot;font-size: 12px;&quot;&gt;&amp;nbsp;c = ((5.2 - 1.4) * 7.0) / 3.0&lt;/font&gt;&lt;/span&gt;&lt;/p&gt;&lt;p class=&quot;MsoNormal&quot;&gt;&lt;font style=&quot;font-size: 12px;&quot;&gt;&lt;span style=&quot;background: rgb(255, 255, 255);&quot;&gt;&lt;/span&gt;&lt;/font&gt;&lt;/p&gt;&lt;p style=&quot;line-height: 70%;&quot; class=&quot;MsoNormal&quot;&gt;&lt;span style=&quot;background: rgb(255, 255, 255);&quot;&gt;&lt;font style=&quot;font-size: 12px;&quot;&gt;&amp;nbsp;c1 = (b / c)&lt;/font&gt;&lt;/span&gt;&lt;/p&gt;&lt;p class=&quot;MsoNormal&quot;&gt;&lt;font style=&quot;font-size: 12px;&quot;&gt;&lt;span style=&quot;background: rgb(255, 255, 255);&quot;&gt;&lt;/span&gt;&lt;/font&gt;&lt;/p&gt;&lt;p style=&quot;line-height: 70%;&quot; class=&quot;MsoNormal&quot;&gt;&lt;font style=&quot;font-size: 12px;&quot;&gt;&lt;span style=&quot;background: rgb(255, 255, 255);&quot;&gt;bracket1 = &lt;/span&gt;&lt;span style=&quot;background: rgb(255, 255, 255);&quot;&gt;Math&lt;/span&gt;&lt;span style=&quot;background: rgb(255, 255, 255);&quot;&gt;.Pow(c1, 0.2)&lt;/span&gt;&lt;/font&gt;&lt;/p&gt;&lt;p class=&quot;MsoNormal&quot;&gt;&lt;font style=&quot;font-size: 12px;&quot;&gt;&lt;span style=&quot;background: rgb(255, 255, 255);&quot;&gt;&lt;/span&gt;&lt;/font&gt;&lt;/p&gt;&lt;p style=&quot;line-height: 70%;&quot; class=&quot;MsoNormal&quot;&gt;&lt;span style=&quot;background: rgb(255, 255, 255);&quot;&gt;&lt;font style=&quot;font-size: 12px;&quot;&gt;a2 = 8.0 * (9.0 / 11.0)&lt;/font&gt;&lt;/span&gt;&lt;/p&gt;&lt;p class=&quot;MsoNormal&quot;&gt;&lt;font style=&quot;font-size: 12px;&quot;&gt;&lt;span style=&quot;background: rgb(255, 255, 255);&quot;&gt;&lt;/span&gt;&lt;/font&gt;&lt;/p&gt;&lt;p style=&quot;line-height: 70%;&quot; class=&quot;MsoNormal&quot;&gt;&lt;span style=&quot;background: rgb(255, 255, 255);&quot;&gt;&lt;font style=&quot;font-size: 12px;&quot;&gt;d = (bracket1 + a2)&lt;/font&gt;&lt;/span&gt;&lt;/p&gt;&lt;p class=&quot;MsoNormal&quot;&gt;&lt;font style=&quot;font-size: 12px;&quot;&gt;&lt;span style=&quot;background: rgb(255, 255, 255);&quot;&gt;&lt;/span&gt;&lt;/font&gt;&lt;/p&gt;&lt;p style=&quot;line-height: 70%;&quot; class=&quot;MsoNormal&quot;&gt;&lt;span style=&quot;background: rgb(255, 255, 255);&quot;&gt;&lt;font style=&quot;font-size: 12px;&quot;&gt;e = 7.0&lt;/font&gt;&lt;/span&gt;&lt;/p&gt;&lt;p class=&quot;MsoNormal&quot;&gt;&lt;font style=&quot;font-size: 12px;&quot;&gt;&lt;span style=&quot;background: rgb(255, 255, 255);&quot;&gt;&lt;/span&gt;&lt;/font&gt;&lt;/p&gt;&lt;p style=&quot;line-height: 70%;&quot; class=&quot;MsoNormal&quot;&gt;&lt;span style=&quot;background: rgb(255, 255, 255);&quot;&gt;&lt;font style=&quot;font-size: 12px;&quot;&gt;f = (30.0 - 93.0 * (5.0 / 18.0))&lt;/font&gt;&lt;/span&gt;&lt;/p&gt;&lt;p class=&quot;MsoNormal&quot;&gt;&lt;font style=&quot;font-size: 12px;&quot;&gt;&lt;span style=&quot;background: rgb(255, 255, 255);&quot;&gt;&lt;/span&gt;&lt;/font&gt;&lt;/p&gt;&lt;p style=&quot;line-height: 70%;&quot; class=&quot;MsoNormal&quot;&gt;&lt;span style=&quot;background: rgb(255, 255, 255);&quot;&gt;&lt;font style=&quot;font-size: 12px;&quot;&gt;g = (e / f + 95.0) * 2.25&lt;/font&gt;&lt;/span&gt;&lt;/p&gt;&lt;p class=&quot;MsoNormal&quot;&gt;&lt;font style=&quot;font-size: 12px;&quot;&gt;&lt;span style=&quot;background: rgb(255, 255, 255);&quot;&gt;&lt;/span&gt;&lt;/font&gt;&lt;/p&gt;&lt;p style=&quot;line-height: 70%;&quot; class=&quot;MsoNormal&quot;&gt;&lt;font style=&quot;font-size: 12px;&quot;&gt;&lt;span style=&quot;background: rgb(255, 255, 255);&quot;&gt;h = &lt;/span&gt;&lt;span style=&quot;background: rgb(255, 255, 255);&quot;&gt;Math&lt;/span&gt;&lt;span style=&quot;background: rgb(255, 255, 255);&quot;&gt;.Pow(2.0, 1.2)&lt;/span&gt;&lt;/font&gt;&lt;/p&gt;&lt;p class=&quot;MsoNormal&quot;&gt;&lt;font style=&quot;font-size: 12px;&quot;&gt;&lt;span style=&quot;background: rgb(255, 255, 255);&quot;&gt;&lt;/span&gt;&lt;/font&gt;&lt;/p&gt;&lt;p style=&quot;line-height: 70%;&quot; class=&quot;MsoNormal&quot;&gt;&lt;span style=&quot;background: rgb(255, 255, 255);&quot;&gt;&lt;font style=&quot;font-size: 12px;&quot;&gt;&amp;nbsp; i = g / h&lt;/font&gt;&lt;/span&gt;&lt;/p&gt;&lt;p class=&quot;MsoNormal&quot;&gt;&lt;font style=&quot;font-size: 12px;&quot;&gt;&lt;span style=&quot;background: rgb(255, 255, 255);&quot;&gt;&lt;/span&gt;&lt;/font&gt;&lt;/p&gt;&lt;p style=&quot;line-height: 70%;&quot; class=&quot;MsoNormal&quot;&gt;&lt;font style=&quot;font-size: 12px;&quot;&gt;&lt;span style=&quot;background: rgb(255, 255, 255);&quot;&gt;j = &lt;/span&gt;&lt;span style=&quot;background: rgb(255, 255, 255);&quot;&gt;Math&lt;/span&gt;&lt;span style=&quot;background: rgb(255, 255, 255);&quot;&gt;.Pow(&lt;/span&gt;&lt;span style=&quot;background: rgb(255, 255, 255);&quot;&gt;Math&lt;/span&gt;&lt;span style=&quot;background: rgb(255, 255, 255);&quot;&gt;.Sqrt(&lt;/span&gt;&lt;span style=&quot;background: rgb(255, 255, 255);&quot;&gt;Math&lt;/span&gt;&lt;span style=&quot;background: rgb(255, 255, 255);&quot;&gt;.PI), 0.16)&lt;/span&gt;&lt;/font&gt;&lt;/p&gt;&lt;p class=&quot;MsoNormal&quot;&gt;&lt;font style=&quot;font-size: 12px;&quot;&gt;&lt;span style=&quot;background: rgb(255, 255, 255);&quot;&gt;&lt;/span&gt;&lt;/font&gt;&lt;/p&gt;&lt;p style=&quot;line-height: 70%;&quot; class=&quot;MsoNormal&quot;&gt;&lt;font style=&quot;font-size: 12px;&quot;&gt;&lt;span style=&quot;background: rgb(255, 255, 255);&quot;&gt;k = (2.0 * &lt;/span&gt;&lt;span style=&quot;background: rgb(255, 255, 255);&quot;&gt;Math&lt;/span&gt;&lt;span style=&quot;background: rgb(255, 255, 255);&quot;&gt;.PI) / 3.0&lt;/span&gt;&lt;/font&gt;&lt;/p&gt;&lt;p style=&quot;line-height: 70%;&quot; class=&quot;MsoNormal&quot;&gt;&lt;font style=&quot;font-size: 12px;&quot;&gt;&lt;span style=&quot;background: rgb(255, 255, 255);&quot;&gt;&lt;/span&gt;&lt;/font&gt;&lt;/p&gt;&lt;p class=&quot;MsoNormal&quot;&gt;&lt;span style=&quot;background: rgb(255, 255, 255);&quot;&gt;&lt;font style=&quot;font-size: 12px;&quot;&gt;&amp;nbsp;result1 = d + i + j + k&lt;/font&gt;&lt;/span&gt;&lt;/p&gt;&lt;p class=&quot;MsoNormal&quot;&gt;&lt;font style=&quot;font-size: 12px;&quot;&gt;&lt;span style=&quot;background: rgb(255, 255, 255);&quot;&gt;&lt;/span&gt;&lt;/font&gt;&lt;/p&gt;&lt;p class=&quot;MsoNormal&quot;&gt;&lt;font style=&quot;font-size: 12px;&quot;&gt;&lt;span style=&quot;background: rgb(255, 255, 255);&quot;&gt;result2 = (((&lt;/span&gt;&lt;span style=&quot;color: rgb(43, 145, 175); background: rgb(255, 255, 255);&quot;&gt;Math&lt;/span&gt;&lt;span style=&quot;background: rgb(255, 255, 255);&quot;&gt;.Pow(&lt;/span&gt;&lt;span style=&quot;color: rgb(43, 145, 175); background: rgb(255, 255, 255);&quot;&gt;Math&lt;/span&gt;&lt;span style=&quot;background: rgb(255, 255, 255);&quot;&gt;.Sqrt((2.7 - 0.8) * (&lt;/span&gt;&lt;span style=&quot;color: rgb(43, 145, 175); background: rgb(255, 255, 255);&quot;&gt;Math&lt;/span&gt;&lt;span style=&quot;background: rgb(255, 255, 255);&quot;&gt;.Pow(&lt;/span&gt;&lt;span style=&quot;color: rgb(43, 145, 175); background: rgb(255, 255, 255);&quot;&gt;Math&lt;/span&gt;&lt;span style=&quot;background: rgb(255, 255, 255);&quot;&gt;.Sqrt(2.33), 0.33))) / (((5.2 - 1.4) * 7.0) / 3.0), 0.2)) + (8.0 * (9.0 / 11.0))) + ((7.0 / (30.0 - 93.0 * (5.0 / 18.0)) + 95.0) * 2.25) / (&lt;/span&gt;&lt;span style=&quot;color: rgb(43, 145, 175); background: rgb(255, 255, 255);&quot;&gt;Math&lt;/span&gt;&lt;span style=&quot;background: rgb(255, 255, 255);&quot;&gt;.Pow(2.0, 1.2)) + (((&lt;/span&gt;&lt;span style=&quot;color: rgb(43, 145, 175); background: rgb(255, 255, 255);&quot;&gt;Math&lt;/span&gt;&lt;span style=&quot;background: rgb(255, 255, 255);&quot;&gt;.Pow(&lt;/span&gt;&lt;span style=&quot;color: rgb(43, 145, 175); background: rgb(255, 255, 255);&quot;&gt;Math&lt;/span&gt;&lt;span style=&quot;background: rgb(255, 255, 255);&quot;&gt;.Sqrt(&lt;/span&gt;&lt;span style=&quot;color: rgb(43, 145, 175); background: rgb(255, 255, 255);&quot;&gt;Math&lt;/span&gt;&lt;span style=&quot;background: rgb(255, 255, 255);&quot;&gt;.PI), 0.16)) + (2.0 * &lt;/span&gt;&lt;span style=&quot;color: rgb(43, 145, 175); background: rgb(255, 255, 255);&quot;&gt;Math&lt;/span&gt;&lt;span style=&quot;background: rgb(255, 255, 255);&quot;&gt;.PI / 3.0))))&lt;/span&gt;&lt;/font&gt;&lt;/p&gt;" style="rounded=0;whiteSpace=wrap;html=1;fontSize=14;fontFamily=Times New Roman;spacing=2;" vertex="1" parent="1">
          <mxGeometry x="230" y="270" width="320" height="510" as="geometry" />
        </mxCell>
        <mxCell id="6riitA2YKotpNlWL1ofX-12" value="" style="edgeStyle=orthogonalEdgeStyle;rounded=0;orthogonalLoop=1;jettySize=auto;html=1;" edge="1" parent="1" source="6riitA2YKotpNlWL1ofX-7" target="6riitA2YKotpNlWL1ofX-8">
          <mxGeometry relative="1" as="geometry" />
        </mxCell>
        <mxCell id="6riitA2YKotpNlWL1ofX-7" value="&lt;p style=&quot;mso-para-margin-top:0,0000gd;mso-para-margin-bottom:0,0000gd;text-align:left;&quot; class=&quot;MsoNormal&quot;&gt;&lt;font style=&quot;font-size: 14px;&quot; face=&quot;Times New Roman&quot;&gt;&lt;span style=&quot;background: rgb(255, 255, 255);&quot;&gt;&amp;nbsp;&lt;/span&gt;&lt;span style=&quot;color: rgb(43, 145, 175); background: rgb(255, 255, 255);&quot;&gt;Console&lt;/span&gt;&lt;span style=&quot;background: rgb(255, 255, 255);&quot;&gt;.WriteLine(&lt;/span&gt;&lt;span style=&quot;color: rgb(163, 21, 21); background: rgb(255, 255, 255);&quot;&gt;&quot;Выражение, посчитанное присвоением нескольким переменным: &quot;&lt;/span&gt;&lt;span style=&quot;background: rgb(255, 255, 255);&quot;&gt;&amp;nbsp;+ result1);&lt;/span&gt;&lt;span style=&quot;background: rgb(255, 255, 255);&quot;&gt;&lt;/span&gt;&lt;/font&gt;&lt;/p&gt;&lt;p style=&quot;mso-para-margin-top:0,0000gd;mso-para-margin-bottom:0,0000gd;text-align:left;&quot; class=&quot;MsoNormal&quot;&gt;&lt;font style=&quot;font-size: 14px;&quot; face=&quot;Times New Roman&quot;&gt;&lt;span style=&quot;background: rgb(255, 255, 255);&quot;&gt;&amp;nbsp;&amp;nbsp;&amp;nbsp;&amp;nbsp;&amp;nbsp;&amp;nbsp;&amp;nbsp;&amp;nbsp;&amp;nbsp;&amp;nbsp;&lt;/span&gt;&lt;span style=&quot;color: rgb(43, 145, 175); background: rgb(255, 255, 255);&quot;&gt;Console&lt;/span&gt;&lt;span style=&quot;background: rgb(255, 255, 255);&quot;&gt;.WriteLine(&lt;/span&gt;&lt;span style=&quot;color: rgb(163, 21, 21); background: rgb(255, 255, 255);&quot;&gt;&quot;Выражение, посчитанное присвоением одной переменной: &quot;&lt;/span&gt;&lt;span style=&quot;background: rgb(255, 255, 255);&quot;&gt;&amp;nbsp;+ result2);&lt;/span&gt;&lt;/font&gt;&lt;span style=&quot;font-family: &amp;quot;Times New Roman&amp;quot;; background: rgb(255, 255, 255);&quot;&gt;&lt;/span&gt;&lt;/p&gt;" style="shape=document;whiteSpace=wrap;html=1;boundedLbl=1;" vertex="1" parent="1">
          <mxGeometry x="228" y="828" width="324" height="132" as="geometry" />
        </mxCell>
        <mxCell id="6riitA2YKotpNlWL1ofX-8" value="Конец" style="ellipse;whiteSpace=wrap;html=1;" vertex="1" parent="1">
          <mxGeometry x="228" y="1008" width="324" height="48" as="geometry" />
        </mxCell>
      </root>
    </mxGraphModel>
  </diagram>
</mxfile>
